<svg preserveAspectRatio="xMidYMid meet" data-bbox="20 20 160 160" viewBox="20 20 160 160" height="200" width="200" xmlns="http://www.w3.org/2000/svg" data-type="color" role="img" aria-label="Homepage"><defs><style>#comp-jhpvyjf2 svg [data-color="1"] {fill: #FF5F42;}</style></defs>
    <g>
        <path d="M100 20c-44.183 0-80 35.817-80 80s35.817 80 80 80 80-35.817 80-80-35.817-80-80-80zm0 37.621c6.175 0 11.181 5.006 11.181 11.181S106.175 79.984 100 79.984c-6.175 0-11.181-5.006-11.181-11.181S93.825 57.621 100 57.621zM53.729 85.292c0-6.175 5.006-11.181 11.181-11.181s11.181 5.006 11.181 11.181-5.006 11.181-11.181 11.181-11.181-5.006-11.181-11.181zM100 140.503c-18.399 0-33.314-6.042-33.314-18.135 0-12.094 14.915-25.661 33.314-25.661 18.398 0 33.313 13.566 33.313 25.661 0 12.094-14.915 18.135-33.313 18.135zm35.089-44.03c-6.175 0-11.181-5.006-11.181-11.181s5.006-11.181 11.181-11.181c6.175 0 11.181 5.006 11.181 11.181s-5.005 11.181-11.181 11.181z" fill="#000001" data-color="1"></path>
    </g>
</svg>